<mxfile host="app.diagrams.net" modified="2024-01-01T00:00:00.000Z" agent="5.0" etag="abc123" version="22.1.16" type="device">
  <diagram name="MLA-Handson-Architecture" id="architecture">
    <mxGraphModel dx="1422" dy="794" grid="1" gridSize="10" guides="1" tooltips="1" connect="1" arrows="1" fold="1" page="1" pageScale="1" pageWidth="1169" pageHeight="827" math="0" shadow="0">
      <root>
        <mxCell id="0" />
        <mxCell id="1" parent="0" />
        
        <!-- AWS Cloud Container -->
        <mxCell id="aws-cloud" value="AWS Cloud" style="rounded=1;whiteSpace=wrap;html=1;fillColor=#fff2cc;strokeColor=#d6b656;fontSize=16;fontStyle=1;verticalAlign=top;spacingTop=10;" vertex="1" parent="1">
          <mxGeometry x="40" y="40" width="1080" height="740" as="geometry" />
        </mxCell>
        
        <!-- VPC Container -->
        <mxCell id="vpc" value="VPC" style="rounded=1;whiteSpace=wrap;html=1;fillColor=#e1d5e7;strokeColor=#9673a6;fontSize=14;fontStyle=1;verticalAlign=top;spacingTop=10;" vertex="1" parent="1">
          <mxGeometry x="80" y="80" width="1000" height="660" as="geometry" />
        </mxCell>
        
        <!-- Data Storage Layer -->
        <mxCell id="storage-layer" value="データ取得・保存層" style="rounded=1;whiteSpace=wrap;html=1;fillColor=#dae8fc;strokeColor=#6c8ebf;fontSize=12;fontStyle=1;verticalAlign=top;spacingTop=10;" vertex="1" parent="1">
          <mxGeometry x="120" y="120" width="920" height="120" as="geometry" />
        </mxCell>
        
        <!-- S3 Buckets -->
        <mxCell id="s3-raw" value="S3 Bucket&#xa;Raw Data" style="rounded=1;whiteSpace=wrap;html=1;fillColor=#f8cecc;strokeColor=#b85450;" vertex="1" parent="1">
          <mxGeometry x="160" y="160" width="120" height="60" as="geometry" />
        </mxCell>
        
        <mxCell id="s3-processed" value="S3 Bucket&#xa;Processed Data" style="rounded=1;whiteSpace=wrap;html=1;fillColor=#f8cecc;strokeColor=#b85450;" vertex="1" parent="1">
          <mxGeometry x="320" y="160" width="120" height="60" as="geometry" />
        </mxCell>
        
        <mxCell id="s3-models" value="S3 Bucket&#xa;Model Artifacts" style="rounded=1;whiteSpace=wrap;html=1;fillColor=#f8cecc;strokeColor=#b85450;" vertex="1" parent="1">
          <mxGeometry x="480" y="160" width="120" height="60" as="geometry" />
        </mxCell>
        
        <!-- DynamoDB -->
        <mxCell id="dynamodb" value="DynamoDB&#xa;Inference Cache" style="rounded=1;whiteSpace=wrap;html=1;fillColor=#d5e8d4;strokeColor=#82b366;" vertex="1" parent="1">
          <mxGeometry x="640" y="160" width="120" height="60" as="geometry" />
        </mxCell>
        
        <!-- RDS Aurora -->
        <mxCell id="rds-aurora" value="RDS Aurora&#xa;MySQL Cluster" style="rounded=1;whiteSpace=wrap;html=1;fillColor=#ffe6cc;strokeColor=#d79b00;" vertex="1" parent="1">
          <mxGeometry x="800" y="160" width="120" height="60" as="geometry" />
        </mxCell>
        
        <!-- Data Processing Layer -->
        <mxCell id="processing-layer" value="データ処理・準備層" style="rounded=1;whiteSpace=wrap;html=1;fillColor=#dae8fc;strokeColor=#6c8ebf;fontSize=12;fontStyle=1;verticalAlign=top;spacingTop=10;" vertex="1" parent="1">
          <mxGeometry x="120" y="280" width="920" height="120" as="geometry" />
        </mxCell>
        
        <!-- Glue Database -->
        <mxCell id="glue-db" value="AWS Glue&#xa;Database" style="rounded=1;whiteSpace=wrap;html=1;fillColor=#e1d5e7;strokeColor=#9673a6;" vertex="1" parent="1">
          <mxGeometry x="200" y="320" width="120" height="60" as="geometry" />
        </mxCell>
        
        <!-- Lambda Function -->
        <mxCell id="lambda" value="Lambda&#xa;Data Processing" style="rounded=1;whiteSpace=wrap;html=1;fillColor=#fff2cc;strokeColor=#d6b656;" vertex="1" parent="1">
          <mxGeometry x="400" y="320" width="120" height="60" as="geometry" />
        </mxCell>
        
        <!-- API Gateway -->
        <mxCell id="api-gateway" value="API Gateway&#xa;REST API" style="rounded=1;whiteSpace=wrap;html=1;fillColor=#f8cecc;strokeColor=#b85450;" vertex="1" parent="1">
          <mxGeometry x="600" y="320" width="120" height="60" as="geometry" />
        </mxCell>
        
        <!-- ML Development Layer -->
        <mxCell id="ml-layer" value="機械学習開発・訓練層" style="rounded=1;whiteSpace=wrap;html=1;fillColor=#dae8fc;strokeColor=#6c8ebf;fontSize=12;fontStyle=1;verticalAlign=top;spacingTop=10;" vertex="1" parent="1">
          <mxGeometry x="120" y="440" width="920" height="180" as="geometry" />
        </mxCell>
        
        <!-- SageMaker Domain Container -->
        <mxCell id="sagemaker-domain" value="SageMaker Domain" style="rounded=1;whiteSpace=wrap;html=1;fillColor=#e1d5e7;strokeColor=#9673a6;fontSize=12;fontStyle=1;verticalAlign=top;spacingTop=10;" vertex="1" parent="1">
          <mxGeometry x="160" y="480" width="840" height="120" as="geometry" />
        </mxCell>
        
        <!-- SageMaker User Profile -->
        <mxCell id="sagemaker-user" value="User Profile&#xa;mla-user" style="rounded=1;whiteSpace=wrap;html=1;fillColor=#d5e8d4;strokeColor=#82b366;" vertex="1" parent="1">
          <mxGeometry x="200" y="520" width="100" height="60" as="geometry" />
        </mxCell>
        
        <!-- SageMaker Studio Components -->
        <mxCell id="studio-notebook" value="Studio&#xa;Notebook" style="rounded=1;whiteSpace=wrap;html=1;fillColor=#fff2cc;strokeColor=#d6b656;" vertex="1" parent="1">
          <mxGeometry x="340" y="520" width="80" height="60" as="geometry" />
        </mxCell>
        
        <mxCell id="training-jobs" value="Training&#xa;Jobs" style="rounded=1;whiteSpace=wrap;html=1;fillColor=#fff2cc;strokeColor=#d6b656;" vertex="1" parent="1">
          <mxGeometry x="450" y="520" width="80" height="60" as="geometry" />
        </mxCell>
        
        <mxCell id="tuning-jobs" value="Tuning&#xa;Jobs" style="rounded=1;whiteSpace=wrap;html=1;fillColor=#fff2cc;strokeColor=#d6b656;" vertex="1" parent="1">
          <mxGeometry x="560" y="520" width="80" height="60" as="geometry" />
        </mxCell>
        
        <mxCell id="pipelines" value="Pipelines" style="rounded=1;whiteSpace=wrap;html=1;fillColor=#fff2cc;strokeColor=#d6b656;" vertex="1" parent="1">
          <mxGeometry x="670" y="520" width="80" height="60" as="geometry" />
        </mxCell>
        
        <mxCell id="experiments" value="Experiments" style="rounded=1;whiteSpace=wrap;html=1;fillColor=#fff2cc;strokeColor=#d6b656;" vertex="1" parent="1">
          <mxGeometry x="780" y="520" width="80" height="60" as="geometry" />
        </mxCell>
        
        <mxCell id="model-registry" value="Model&#xa;Registry" style="rounded=1;whiteSpace=wrap;html=1;fillColor=#fff2cc;strokeColor=#d6b656;" vertex="1" parent="1">
          <mxGeometry x="890" y="520" width="80" height="60" as="geometry" />
        </mxCell>
        
        <!-- IAM Role -->
        <mxCell id="iam-role" value="IAM Role&#xa;SageMaker Execution" style="rounded=1;whiteSpace=wrap;html=1;fillColor=#f8cecc;strokeColor=#b85450;" vertex="1" parent="1">
          <mxGeometry x="120" y="660" width="140" height="60" as="geometry" />
        </mxCell>
        
        <!-- Connections -->
        <mxCell id="conn1" value="" style="endArrow=classic;html=1;rounded=0;exitX=0.5;exitY=1;exitDx=0;exitDy=0;entryX=0.5;entryY=0;entryDx=0;entryDy=0;" edge="1" parent="1" source="s3-raw" target="glue-db">
          <mxGeometry width="50" height="50" relative="1" as="geometry">
            <mxPoint x="220" y="240" as="sourcePoint" />
            <mxPoint x="270" y="190" as="targetPoint" />
          </mxGeometry>
        </mxCell>
        
        <mxCell id="conn2" value="" style="endArrow=classic;html=1;rounded=0;exitX=0.5;exitY=1;exitDx=0;exitDy=0;entryX=0.5;entryY=0;entryDx=0;entryDy=0;" edge="1" parent="1" source="lambda" target="studio-notebook">
          <mxGeometry width="50" height="50" relative="1" as="geometry">
            <mxPoint x="460" y="400" as="sourcePoint" />
            <mxPoint x="380" y="500" as="targetPoint" />
          </mxGeometry>
        </mxCell>
        
        <mxCell id="conn3" value="" style="endArrow=classic;html=1;rounded=0;exitX=1;exitY=0.5;exitDx=0;exitDy=0;entryX=0;entryY=0.5;entryDx=0;entryDy=0;" edge="1" parent="1" source="lambda" target="api-gateway">
          <mxGeometry width="50" height="50" relative="1" as="geometry">
            <mxPoint x="520" y="350" as="sourcePoint" />
            <mxPoint x="600" y="350" as="targetPoint" />
          </mxGeometry>
        </mxCell>
        
        <mxCell id="conn4" value="" style="endArrow=classic;html=1;rounded=0;exitX=0.5;exitY=0;exitDx=0;exitDy=0;entryX=0.5;entryY=1;entryDx=0;entryDy=0;" edge="1" parent="1" source="iam-role" target="sagemaker-user">
          <mxGeometry width="50" height="50" relative="1" as="geometry">
            <mxPoint x="190" y="640" as="sourcePoint" />
            <mxPoint x="250" y="600" as="targetPoint" />
          </mxGeometry>
        </mxCell>
        
        <!-- Legend -->
        <mxCell id="legend" value="凡例" style="rounded=1;whiteSpace=wrap;html=1;fillColor=#f5f5f5;strokeColor=#666666;fontSize=12;fontStyle=1;verticalAlign=top;spacingTop=10;" vertex="1" parent="1">
          <mxGeometry x="1200" y="40" width="200" height="200" as="geometry" />
        </mxCell>
        
        <mxCell id="legend-s3" value="S3 Storage" style="rounded=1;whiteSpace=wrap;html=1;fillColor=#f8cecc;strokeColor=#b85450;fontSize=10;" vertex="1" parent="1">
          <mxGeometry x="1220" y="80" width="80" height="30" as="geometry" />
        </mxCell>
        
        <mxCell id="legend-db" value="Database" style="rounded=1;whiteSpace=wrap;html=1;fillColor=#d5e8d4;strokeColor=#82b366;fontSize=10;" vertex="1" parent="1">
          <mxGeometry x="1220" y="120" width="80" height="30" as="geometry" />
        </mxCell>
        
        <mxCell id="legend-compute" value="Compute" style="rounded=1;whiteSpace=wrap;html=1;fillColor=#fff2cc;strokeColor=#d6b656;fontSize=10;" vertex="1" parent="1">
          <mxGeometry x="1220" y="160" width="80" height="30" as="geometry" />
        </mxCell>
        
        <mxCell id="legend-ml" value="ML Service" style="rounded=1;whiteSpace=wrap;html=1;fillColor=#e1d5e7;strokeColor=#9673a6;fontSize=10;" vertex="1" parent="1">
          <mxGeometry x="1220" y="200" width="80" height="30" as="geometry" />
        </mxCell>
        
      </root>
    </mxGraphModel>
  </diagram>
</mxfile>